#
#
#

mtllib lowpolytree.mtl


#
#  Mesh
#
g  Mesh


#
#  Mesh_Bark
#
usemtl  Mesh_Bark

v 0.015674 4.354939 -0.253986
v 0.019167 5.115606 0.022684
v 0.028745 5.115606 0.026170
v 0.199847 4.354939 -0.186952
v 0.033842 5.115606 0.034997
v 0.292234 4.291613 -0.023413
v 0.032072 5.115606 0.045035
v 0.263809 4.354939 0.175798
v 0.024263 5.115606 0.051587
v 0.113670 4.354939 0.301780
v 0.014070 5.115606 0.051587
v -0.087932 4.291613 0.295584
v 0.006262 5.115606 0.045035
v -0.232462 4.354939 0.175798
v 0.004492 5.115606 0.034997
v -0.266496 4.354939 -0.017217
v 0.009589 5.115606 0.026170
v -0.174109 4.291613 -0.193148
v -0.005440 1.079129 -0.939428
v 0.637348 1.079129 -0.705472
v 0.979368 0.885052 -0.113076
v 0.860586 0.885052 0.560572
v 0.336580 1.079129 1.000265
v -0.353069 1.015803 0.994068
v -0.871465 0.885052 0.560572
v -0.990247 0.885052 -0.113076
v -0.653837 0.821725 -0.711668
v -1.162461 0.833719 -0.150182
v -0.862932 1.435185 -0.094124
v -0.569643 1.371859 -0.618026
v -0.766733 0.770393 -0.851516
v -0.002290 1.435185 -0.816288
v -0.006855 0.833719 -1.119851
v -1.023078 0.833719 0.640299
v -0.759126 1.435185 0.494589
v -0.413802 0.770393 1.150053
v -0.306797 1.371859 0.872648
v 0.394483 0.833719 1.156250
v 0.296607 1.435185 0.878845
v 1.009368 0.833719 0.640300
v 0.754545 1.435185 0.494589
v 1.143143 0.770393 -0.156378
v 0.858351 1.435185 -0.094124
v 0.747414 0.833719 -0.845319
v 0.559453 1.435185 -0.611830
v -0.470645 3.581434 -0.047718
v -0.162981 4.405030 0.010068
v -0.106769 4.341702 -0.103204
v -0.309076 3.518106 -0.343475
v 0.015024 4.405030 -0.139296
v 0.010725 3.581434 -0.451635
v -0.412585 3.581434 0.281558
v -0.141511 4.405030 0.131830
v -0.162062 3.518108 0.490282
v -0.052405 4.341702 0.205109
v 0.177903 3.581434 0.496478
v 0.076845 4.405030 0.211305
v 0.434034 3.581434 0.281558
v 0.171559 4.405030 0.131830
v 0.486486 3.518106 -0.053915
v 0.193029 4.405030 0.010068
v 0.324917 3.581434 -0.337279
v 0.131209 4.405030 -0.097008
v 0.005286 2.731271 -0.671042
v 0.010529 3.633981 -0.315061
v 0.242392 3.633981 -0.230669
v 0.463775 2.731271 -0.504165
v 0.365764 3.633981 -0.016983
v 0.702124 2.667943 -0.087815
v 0.322917 3.633981 0.226012
v 0.623007 2.731271 0.398883
v 0.133901 3.633981 0.384616
v 0.249243 2.731271 0.712509
v -0.118452 3.570655 0.378420
v -0.244281 2.667945 0.706312
v -0.301860 3.633981 0.226012
v -0.612436 2.731271 0.398883
v -0.344706 3.633981 -0.016983
v -0.697161 2.731271 -0.081619
v -0.458813 2.667945 -0.510362
v -0.226943 3.570654 -0.236866
v -0.864248 1.967416 -0.105654
v -0.545192 2.783333 -0.046827
v -0.359524 2.720006 -0.384325
v -0.569569 1.904090 -0.631965
v 0.005569 2.783333 -0.508971
v 0.000399 1.967416 -0.831178
v -0.759959 1.967417 0.485799
v -0.478762 2.783333 0.329916
v -0.305499 1.904090 0.865646
v -0.191317 2.720006 0.569622
v 0.300687 1.967417 0.871843
v 0.196847 2.783333 0.575818
v 0.760756 1.967416 0.485799
v 0.489901 2.783333 0.329917
v 0.859436 1.904090 -0.111850
v 0.556331 2.783333 -0.046827
v 0.564756 1.967417 -0.625769
v 0.365054 2.783333 -0.378129
v -0.003388 1.375631 -0.997131
v 0.001149 2.025090 -0.681816
v 0.474390 2.025091 -0.509570
v 0.669916 1.375632 -0.752068
v 0.726197 2.025090 -0.073428
v 1.022565 1.312305 -0.137744
v 0.638746 2.025091 0.422534
v 0.903752 1.375632 0.574081
v 0.252955 2.025091 0.746250
v 0.354870 1.375632 1.034648
v -0.256267 1.961764 0.740054
v -0.367254 1.312305 1.028452
v -0.636448 2.025091 0.422534
v -0.910528 1.375632 0.574081
v -0.723899 2.025090 -0.073428
v -1.034949 1.375631 -0.131548
v -0.682301 1.312305 -0.758265
v -0.477702 1.961764 -0.515766
v -0.018886 0.574182 -0.264436
v -0.018886 1.168411 -0.373037
v 0.231064 1.168411 -0.282063
v 0.161257 0.574182 -0.198870
v 0.364060 1.168411 -0.051708
v 0.257109 0.574182 -0.032850
v 0.317871 1.168411 0.210242
v 0.223820 0.574182 0.155942
v 0.114110 1.168411 0.381218
v 0.076966 0.574182 0.279167
v -0.151881 1.168411 0.381218
v -0.114738 0.574182 0.279166
v -0.355642 1.168411 0.210242
v -0.261591 0.574182 0.155942
v -0.401831 1.168411 -0.051708
v -0.294880 0.574182 -0.032850
v -0.268836 1.168411 -0.282063
v -0.199028 0.574182 -0.198870
v -0.018886 -0.007035 -0.373037
v 0.231064 -0.007035 -0.282063
v 0.364060 -0.007035 -0.051708
v 0.317871 -0.007035 0.210242
v 0.114110 -0.007035 0.381218
v -0.151881 -0.007035 0.381218
v -0.355642 -0.007035 0.210242
v -0.401831 -0.007035 -0.051708
v -0.268836 -0.007035 -0.282063
vn 0.337107 -0.169303 -0.926118
vn 0.853510 -0.169302 -0.492806
vn 0.970599 -0.169300 0.171100
vn 0.633497 -0.169299 0.754996
vn 0.000000 -0.169294 0.985566
vn -0.633497 -0.169299 0.754996
vn -0.970599 -0.169300 0.171100
vn 0.000000 1.000000 0.000000
vn -0.337107 -0.169303 -0.926118
vn -0.853510 -0.169302 -0.492806
vn 0.000000 -1.000000 0.000000
vn -0.852975 0.172895 -0.492485
vn -0.336909 0.172905 -0.925525
vn -0.969983 0.172897 0.170997
vn -0.633106 0.172902 0.754507
vn 0.000000 0.172907 0.984938
vn 0.633106 0.172902 0.754507
vn 0.969983 0.172897 0.170997
vn 0.852975 0.172895 -0.492485
vn 0.336909 0.172905 -0.925525
f 118//1 119//1 120//1 121//1
f 121//2 120//2 122//2 123//2
f 123//3 122//3 124//3 125//3
f 125//4 124//4 126//4 127//4
f 127//5 126//5 128//5 129//5
f 129//6 128//6 130//6 131//6
f 131//7 130//7 132//7 133//7
f 120//8 119//8 134//8 132//8 130//8 128//8 126//8 124//8 122//8
f 135//9 134//9 119//9 118//9
f 133//10 132//10 134//10 135//10
f 136//11 137//11 138//11 139//11 140//11 141//11 142//11 143//11 144//11
f 143//12 133//12 135//12 144//12
f 144//13 135//13 118//13 136//13
f 142//14 131//14 133//14 143//14
f 141//15 129//15 131//15 142//15
f 140//16 127//16 129//16 141//16
f 139//17 125//17 127//17 140//17
f 138//18 123//18 125//18 139//18
f 137//19 121//19 123//19 138//19
f 136//20 118//20 121//20 137//20

#
#  Mesh_Leaves
#
usemtl  Mesh_Leaves

v 0.015674 4.354939 -0.253986
v 0.019167 5.115606 0.022684
v 0.028745 5.115606 0.026170
v 0.199847 4.354939 -0.186952
v 0.033842 5.115606 0.034997
v 0.292234 4.291613 -0.023413
v 0.032072 5.115606 0.045035
v 0.263809 4.354939 0.175798
v 0.024263 5.115606 0.051587
v 0.113670 4.354939 0.301780
v 0.014070 5.115606 0.051587
v -0.087932 4.291613 0.295584
v 0.006262 5.115606 0.045035
v -0.232462 4.354939 0.175798
v 0.004492 5.115606 0.034997
v -0.266496 4.354939 -0.017217
v 0.009589 5.115606 0.026170
v -0.174109 4.291613 -0.193148
v -0.005440 1.079129 -0.939428
v 0.637348 1.079129 -0.705472
v 0.979368 0.885052 -0.113076
v 0.860586 0.885052 0.560572
v 0.336580 1.079129 1.000265
v -0.353069 1.015803 0.994068
v -0.871465 0.885052 0.560572
v -0.990247 0.885052 -0.113076
v -0.653837 0.821725 -0.711668
v -1.162461 0.833719 -0.150182
v -0.862932 1.435185 -0.094124
v -0.569643 1.371859 -0.618026
v -0.766733 0.770393 -0.851516
v -0.002290 1.435185 -0.816288
v -0.006855 0.833719 -1.119851
v -1.023078 0.833719 0.640299
v -0.759126 1.435185 0.494589
v -0.413802 0.770393 1.150053
v -0.306797 1.371859 0.872648
v 0.394483 0.833719 1.156250
v 0.296607 1.435185 0.878845
v 1.009368 0.833719 0.640300
v 0.754545 1.435185 0.494589
v 1.143143 0.770393 -0.156378
v 0.858351 1.435185 -0.094124
v 0.747414 0.833719 -0.845319
v 0.559453 1.435185 -0.611830
v -0.470645 3.581434 -0.047718
v -0.162981 4.405030 0.010068
v -0.106769 4.341702 -0.103204
v -0.309076 3.518106 -0.343475
v 0.015024 4.405030 -0.139296
v 0.010725 3.581434 -0.451635
v -0.412585 3.581434 0.281558
v -0.141511 4.405030 0.131830
v -0.162062 3.518108 0.490282
v -0.052405 4.341702 0.205109
v 0.177903 3.581434 0.496478
v 0.076845 4.405030 0.211305
v 0.434034 3.581434 0.281558
v 0.171559 4.405030 0.131830
v 0.486486 3.518106 -0.053915
v 0.193029 4.405030 0.010068
v 0.324917 3.581434 -0.337279
v 0.131209 4.405030 -0.097008
v 0.005286 2.731271 -0.671042
v 0.010529 3.633981 -0.315061
v 0.242392 3.633981 -0.230669
v 0.463775 2.731271 -0.504165
v 0.365764 3.633981 -0.016983
v 0.702124 2.667943 -0.087815
v 0.322917 3.633981 0.226012
v 0.623007 2.731271 0.398883
v 0.133901 3.633981 0.384616
v 0.249243 2.731271 0.712509
v -0.118452 3.570655 0.378420
v -0.244281 2.667945 0.706312
v -0.301860 3.633981 0.226012
v -0.612436 2.731271 0.398883
v -0.344706 3.633981 -0.016983
v -0.697161 2.731271 -0.081619
v -0.458813 2.667945 -0.510362
v -0.226943 3.570654 -0.236866
v -0.864248 1.967416 -0.105654
v -0.545192 2.783333 -0.046827
v -0.359524 2.720006 -0.384325
v -0.569569 1.904090 -0.631965
v 0.005569 2.783333 -0.508971
v 0.000399 1.967416 -0.831178
v -0.759959 1.967417 0.485799
v -0.478762 2.783333 0.329916
v -0.305499 1.904090 0.865646
v -0.191317 2.720006 0.569622
v 0.300687 1.967417 0.871843
v 0.196847 2.783333 0.575818
v 0.760756 1.967416 0.485799
v 0.489901 2.783333 0.329917
v 0.859436 1.904090 -0.111850
v 0.556331 2.783333 -0.046827
v 0.564756 1.967417 -0.625769
v 0.365054 2.783333 -0.378129
v -0.003388 1.375631 -0.997131
v 0.001149 2.025090 -0.681816
v 0.474390 2.025091 -0.509570
v 0.669916 1.375632 -0.752068
v 0.726197 2.025090 -0.073428
v 1.022565 1.312305 -0.137744
v 0.638746 2.025091 0.422534
v 0.903752 1.375632 0.574081
v 0.252955 2.025091 0.746250
v 0.354870 1.375632 1.034648
v -0.256267 1.961764 0.740054
v -0.367254 1.312305 1.028452
v -0.636448 2.025091 0.422534
v -0.910528 1.375632 0.574081
v -0.723899 2.025090 -0.073428
v -1.034949 1.375631 -0.131548
v -0.682301 1.312305 -0.758265
v -0.477702 1.961764 -0.515766
v -0.018886 0.574182 -0.264436
v -0.018886 1.168411 -0.373037
v 0.231064 1.168411 -0.282063
v 0.161257 0.574182 -0.198870
v 0.364060 1.168411 -0.051708
v 0.257109 0.574182 -0.032850
v 0.317871 1.168411 0.210242
v 0.223820 0.574182 0.155942
v 0.114110 1.168411 0.381218
v 0.076966 0.574182 0.279167
v -0.151881 1.168411 0.381218
v -0.114738 0.574182 0.279166
v -0.355642 1.168411 0.210242
v -0.261591 0.574182 0.155942
v -0.401831 1.168411 -0.051708
v -0.294880 0.574182 -0.032850
v -0.268836 1.168411 -0.282063
v -0.199028 0.574182 -0.198870
v -0.018886 -0.007035 -0.373037
v 0.231064 -0.007035 -0.282063
v 0.364060 -0.007035 -0.051708
v 0.317871 -0.007035 0.210242
v 0.114110 -0.007035 0.381218
v -0.151881 -0.007035 0.381218
v -0.355642 -0.007035 0.210242
v -0.401831 -0.007035 -0.051708
v -0.268836 -0.007035 -0.282063
vn 0.323803 0.322103 -0.889608
vn 0.873038 0.302213 -0.382717
vn 0.953649 0.297115 0.047702
vn 0.610891 0.311196 0.727990
vn -0.116401 0.296504 0.947912
vn -0.531308 0.301504 0.791712
vn -0.932686 0.320995 0.164497
vn 0.000000 1.000000 0.000000
vn -0.380904 0.316904 -0.868610
vn -0.789816 0.316606 -0.525311
vn 0.041501 -0.999135 0.002400
vn -0.766746 0.431026 -0.475728
vn -0.335609 0.430411 -0.837922
vn -0.889812 0.428506 0.156902
vn -0.551091 0.422993 0.719288
vn -0.045499 0.418694 0.906987
vn 0.584417 0.416312 0.696521
vn 0.907885 0.395994 0.137598
vn 0.802302 0.402501 -0.440801
vn 0.309302 0.426603 -0.849907
vn -0.783768 0.336986 -0.521679
vn -0.378293 0.336693 -0.862283
vn -0.927874 0.335091 0.163595
vn -0.527706 0.328803 0.783208
vn -0.112697 0.325590 0.938771
vn 0.607781 0.325390 0.724378
vn 0.943707 0.312202 0.109301
vn 0.844377 0.317291 -0.431688
vn 0.322385 0.334184 -0.885658
vn 0.320908 0.345809 -0.881722
vn 0.832509 0.330404 -0.444705
vn 0.936620 0.326007 0.128303
vn 0.604703 0.339001 0.720703
vn -0.073502 0.340907 0.937219
vn -0.553406 0.344104 0.758508
vn -0.923004 0.348701 0.162701
vn -0.357896 0.348996 -0.866090
vn -0.790618 0.350008 -0.502412
vn -0.795674 0.350688 -0.493884
vn -0.348609 0.349609 -0.869623
vn -0.922845 0.349117 0.162708
vn -0.566369 0.344581 0.748659
vn -0.055101 0.340806 0.938517
vn 0.604825 0.338514 0.720830
vn 0.935907 0.324302 0.137501
vn 0.829007 0.329303 -0.452004
vn 0.320903 0.346103 -0.881609
vn 0.311399 0.413298 -0.855696
vn 0.807733 0.391016 -0.441218
vn 0.912923 0.384910 0.135703
vn 0.588119 0.403513 0.700923
vn -0.050902 0.405612 0.912627
vn -0.551316 0.409612 0.726821
vn -0.895998 0.414999 0.158000
vn -0.340387 0.416784 -0.842868
vn -0.770835 0.417419 -0.481222
vn 0.182399 -0.862798 0.471499
vn 0.434603 -0.856707 0.277802
vn 0.451110 -0.888920 -0.079502
vn 0.033800 -0.816399 -0.576499
vn 0.332615 -0.824036 -0.458620
vn -0.304892 -0.880376 -0.363290
vn -0.650207 -0.758208 0.048500
vn -0.618896 -0.766095 0.173399
vn -0.143896 -0.907173 0.395388
vn -0.129501 -0.925507 0.355903
vn -0.535884 -0.819575 0.202794
vn -0.587313 -0.809318 -0.008200
vn -0.269112 -0.908141 -0.320715
vn 0.198398 -0.886991 -0.416996
vn 0.115597 -0.885776 -0.449488
vn 0.398694 -0.914386 -0.070299
vn 0.303290 -0.907669 0.290090
vn 0.229591 -0.909066 0.347687
vn 0.213698 -0.937892 0.273298
vn 0.232192 -0.937666 0.258591
vn 0.335613 -0.940138 -0.059202
vn 0.120799 -0.925489 -0.358996
vn 0.137896 -0.925676 -0.352291
vn -0.226295 -0.935979 -0.269694
vn -0.512912 -0.858120 -0.023501
vn -0.461822 -0.865941 0.192009
vn -0.110699 -0.946188 0.304096
vn -0.130202 -0.924713 0.357705
vn -0.503089 -0.831982 0.233895
vn -0.569503 -0.820504 -0.049400
vn -0.265990 -0.910367 -0.316988
vn 0.107196 -0.903767 -0.414385
vn 0.183894 -0.904671 -0.384388
vn 0.392719 -0.917044 -0.069303
vn 0.223205 -0.920120 0.321807
vn 0.279913 -0.919342 0.276513
vn 0.243386 -0.939746 0.240086
vn 0.193801 -0.940205 0.280101
vn 0.338107 -0.939219 -0.059601
vn 0.157201 -0.930905 -0.329702
vn 0.092201 -0.930308 -0.355003
vn -0.228210 -0.934842 -0.272012
vn -0.498892 -0.865587 -0.043199
vn -0.442204 -0.873008 0.205702
vn -0.113300 -0.943500 0.311400
vn -0.281707 -0.567314 0.773819
vn -0.696603 -0.665803 0.267301
vn -0.464812 -0.884422 -0.041801
vn -0.511637 -0.723952 -0.462733
vn 0.052298 -0.535882 -0.842672
vn 0.463483 -0.730273 -0.501881
vn 0.295597 -0.953891 -0.052100
vn 0.366299 -0.744098 0.558698
vn 0.211800 -0.953998 0.212200
f 145//21 146//21 147//21 148//21
f 148//22 147//22 149//22 150//22
f 150//23 149//23 151//23 152//23
f 152//24 151//24 153//24 154//24
f 154//25 153//25 155//25 156//25
f 156//26 155//26 157//26 158//26
f 158//27 157//27 159//27 160//27
f 147//28 146//28 161//28 159//28 157//28 155//28 153//28 151//28 149//28
f 162//29 161//29 146//29 145//29
f 160//30 159//30 161//30 162//30
f 163//31 164//31 165//31 166//31 167//31 168//31 169//31 170//31 171//31
f 172//32 173//32 174//32 175//32
f 175//33 174//33 176//33 177//33
f 178//34 179//34 173//34 172//34
f 180//35 181//35 179//35 178//35
f 182//36 183//36 181//36 180//36
f 184//37 185//37 183//37 182//37
f 186//38 187//38 185//38 184//38
f 188//39 189//39 187//39 186//39
f 177//40 176//40 189//40 188//40
f 190//41 191//41 192//41 193//41
f 193//42 192//42 194//42 195//42
f 196//43 197//43 191//43 190//43
f 198//44 199//44 197//44 196//44
f 200//45 201//45 199//45 198//45
f 202//46 203//46 201//46 200//46
f 204//47 205//47 203//47 202//47
f 206//48 207//48 205//48 204//48
f 195//49 194//49 207//49 206//49
f 208//50 209//50 210//50 211//50
f 211//51 210//51 212//51 213//51
f 213//52 212//52 214//52 215//52
f 215//53 214//53 216//53 217//53
f 217//54 216//54 218//54 219//54
f 219//55 218//55 220//55 221//55
f 221//56 220//56 222//56 223//56
f 224//57 225//57 209//57 208//57
f 223//58 222//58 225//58 224//58
f 226//59 227//59 228//59 229//59
f 229//60 228//60 230//60 231//60
f 232//61 233//61 227//61 226//61
f 234//62 235//62 233//62 232//62
f 236//63 237//63 235//63 234//63
f 238//64 239//64 237//64 236//64
f 240//65 241//65 239//65 238//65
f 242//66 243//66 241//66 240//66
f 231//67 230//67 243//67 242//67
f 244//68 245//68 246//68 247//68
f 247//69 246//69 248//69 249//69
f 249//70 248//70 250//70 251//70
f 251//71 250//71 252//71 253//71
f 253//72 252//72 254//72 255//72
f 255//73 254//73 256//73 257//73
f 257//74 256//74 258//74 259//74
f 260//75 261//75 245//75 244//75
f 259//76 258//76 261//76 260//76
f 191//77 160//77 162//77 192//77
f 192//78 162//78 145//78 194//78
f 197//79 158//79 160//79 191//79
f 199//80 156//80 158//80 197//80
f 201//81 154//81 156//81 199//81
f 203//82 152//82 154//82 201//82
f 205//83 150//83 152//83 203//83
f 207//84 148//84 150//84 205//84
f 194//85 145//85 148//85 207//85
f 209//86 195//86 206//86 210//86
f 210//87 206//87 204//87 212//87
f 212//88 204//88 202//88 214//88
f 214//89 202//89 200//89 216//89
f 216//90 200//90 198//90 218//90
f 218//91 198//91 196//91 220//91
f 220//92 196//92 190//92 222//92
f 225//93 193//93 195//93 209//93
f 222//94 190//94 193//94 225//94
f 227//95 223//95 224//95 228//95
f 228//96 224//96 208//96 230//96
f 233//97 221//97 223//97 227//97
f 235//98 219//98 221//98 233//98
f 237//99 217//99 219//99 235//99
f 239//100 215//100 217//100 237//100
f 241//101 213//101 215//101 239//101
f 243//102 211//102 213//102 241//102
f 230//103 208//103 211//103 243//103
f 245//104 231//104 242//104 246//104
f 246//105 242//105 240//105 248//105
f 248//106 240//106 238//106 250//106
f 250//107 238//107 236//107 252//107
f 252//108 236//108 234//108 254//108
f 254//109 234//109 232//109 256//109
f 256//110 232//110 226//110 258//110
f 261//111 229//111 231//111 245//111
f 258//112 226//112 229//112 261//112
f 173//113 259//113 260//113 174//113
f 174//114 260//114 244//114 176//114
f 179//115 257//115 259//115 173//115
f 181//116 255//116 257//116 179//116
f 183//117 253//117 255//117 181//117
f 185//118 251//118 253//118 183//118
f 187//119 249//119 251//119 185//119
f 189//120 247//120 249//120 187//120
f 176//121 244//121 247//121 189//121
f 163//122 177//122 188//122 164//122
f 164//123 188//123 186//123 165//123
f 165//124 186//124 184//124 166//124
f 166//125 184//125 182//125 167//125
f 167//126 182//126 180//126 168//126
f 168//127 180//127 178//127 169//127
f 169//128 178//128 172//128 170//128
f 171//129 175//129 177//129 163//129
f 170//130 172//130 175//130 171//130
